# xmcd
#
# Track frame offsets: 
#        150
#        20077
#        40327
#        60176
#        80289
#        98120
#        118698
#        140099
#        158634
#        178206
#        197834
#        219403
#        241128
#        261664
#        273476
#        286627
#        299351
#        316656
#        328488
#
# Disc length: 4570 seconds
#
# Revision: 0
# Processed by: cddbd v1.5.2PL0 Copyright (c) Steve Scherf et al.
# Submitted via: ExactAudioCopyFreeDBPlugin 1.0
#
DISCID=1e11d813
DTITLE=Various Artists / Janma Janmada Anubandha - Shikari - Nagara Ba
DTITLE=yalu - Aa Dinagalu - Mythri
DYEAR=2015
DGENRE=Soundtrack
TTITLE0=S Janaki / Thangaliyalli
TTITLE1=SP Balu, S Janaki / Akashadina Jaari
TTITLE2=SP Balu, S Janaki / Yaava Shilpi
TTITLE3=SP Balu, SP Shailaja / Gandagi Naa
TTITLE4=Sulochana / Minuguva Thaareya
TTITLE5=S Janaki / Nanna Jothege
TTITLE6=S Janaki / Ee Daha Ee Moha
TTITLE7=SP Balu, S Janaki / Kanavarso Vayasiralu
TTITLE8=SP Balu / Preeside Premisde
TTITLE9=SP Balu, S Janaki / Shringara Hennida
TTITLE10=SP Balu / Naane Haadale
TTITLE11=SP Balu, S Janaki / Nee Bandhe Nanagaagi
TTITLE12=S Janaki / Henna Kanna
TTITLE13=Vijay Yesudas, Nanditha / Aa Dingalu (Duet)
TTITLE14=Maestro Ilaiyaraaja / Theme Music 1
TTITLE15=Maestro Ilaiyaraaja, Nanditha / Sihigaali
TTITLE16=Maestro Ilaiyaraaja, Chorus / Theme Music 2
TTITLE17=Vijay Yesudas / Aa Dinagalu (Solo)
TTITLE18=Maestro Ilaiyaraaja, Chorus / Vishaalavada Hrudayakintha
EXTD=
EXTT0=
EXTT1=
EXTT2=
EXTT3=
EXTT4=
EXTT5=
EXTT6=
EXTT7=
EXTT8=
EXTT9=
EXTT10=
EXTT11=
EXTT12=
EXTT13=
EXTT14=
EXTT15=
EXTT16=
EXTT17=
EXTT18=
PLAYORDER=
